<svg width="123" height="123" viewBox="0 0 123 123" fill="none" xmlns="http://www.w3.org/2000/svg">
<path d="M61.5001 26.3571C57.1559 26.3571 52.9094 27.6453 49.2974 30.0588C45.6854 32.4722 42.8701 35.9026 41.2077 39.916C39.5453 43.9295 39.1103 48.3458 39.9578 52.6064C40.8053 56.8671 42.8972 60.7807 45.969 63.8525C49.0407 66.9243 52.9544 69.0162 57.215 69.8637C61.4757 70.7112 65.892 70.2762 69.9054 68.6138C73.9189 66.9513 77.3492 64.1361 79.7627 60.5241C82.1762 56.9121 83.4643 52.6655 83.4643 48.3214C83.4643 42.4961 81.1503 36.9094 77.0312 32.7903C72.912 28.6712 67.3253 26.3571 61.5001 26.3571Z" fill="#FF5454"/>
<path d="M61.5 0C49.3365 0 37.4461 3.60691 27.3324 10.3646C17.2188 17.1223 9.33622 26.7273 4.68144 37.965C0.0266469 49.2026 -1.19126 61.5682 1.18173 73.498C3.55472 85.4279 9.41203 96.3861 18.013 104.987C26.6139 113.588 37.5721 119.445 49.502 121.818C61.4318 124.191 73.7974 122.973 85.035 118.319C96.2727 113.664 105.878 105.781 112.635 95.6675C119.393 85.5539 123 73.6635 123 61.5C122.981 45.1949 116.496 29.5629 104.967 18.0335C93.4371 6.50402 77.8051 0.0186025 61.5 0ZM96.6077 100.711C96.5202 94.9487 94.1726 89.4517 90.0708 85.4041C85.9689 81.3565 80.4412 79.0823 74.6786 79.0714H48.3214C42.5588 79.0823 37.0311 81.3565 32.9293 85.4041C28.8274 89.4517 26.4799 94.9487 26.3923 100.711C18.4261 93.5975 12.8084 84.2325 10.283 73.8556C7.75754 63.4788 8.44353 52.5796 12.2501 42.6013C16.0567 32.623 22.8043 24.0362 31.5995 17.9781C40.3946 11.9199 50.8225 8.676 61.5022 8.676C72.1819 8.676 82.6098 11.9199 91.4049 17.9781C100.2 24.0362 106.948 32.623 110.754 42.6013C114.561 52.5796 115.247 63.4788 112.721 73.8556C110.196 84.2325 104.574 93.5975 96.6077 100.711Z" fill="#FF5454"/>
</svg>
